<svg xmlns="http://www.w3.org/2000/svg" viewBox="-367 247.5 106.8 100.8"><path fill="#459BBE" d="M-333.3 300.2l4.4-28.1h-4.8c-2.2 0-5.1-1.2-6-3.5-.3-.8-.9-3.5 2.8-6.1 1.3-.9 2.2-1.9 2.3-2.7.2-.8 0-1.5-.6-2.1-.7-.7-2.3-1.2-4.3-1.2-3.4 0-5.8 2-6 3.4-.2 1.1.7 1.9 1.4 2.4 2.1 1.6 2.6 3.9 1.3 6.1-1.4 2.2-4.3 3.7-7.4 3.7h-4.9c-.4 2.7-7 44.7-7.5 48h26.4c.1-1.4 1.3-9.4 2.9-19.9z"/><path fill="#235971" d="M-298 247.5h-26.8l-3.6 22.7h4.6c2.5 0 4.9-1.1 5.9-2.8.3-.5.5-1 .5-1.4 0-.9-.6-1.7-1.3-2.1-1.8-1.3-2.1-2.7-2.1-3.7v-.5c.4-2.4 3.6-5 7.9-5 2.6 0 4.5.6 5.7 1.7 1 1 1.5 2.4 1.2 3.8-.4 1.7-2.1 3.1-3.1 3.8-2.6 1.8-2.3 3.4-2.1 3.9.5 1.4 2.6 2.3 4.2 2.3h7c9.5.1 14.6 4.4 12.9 14.6-1.5 9.4-8.7 13.5-17.3 13.6l-3.6 21.7h5c21.3 0 38.6-13.7 42.1-35.2 4.3-26.7-12.7-37.4-37.1-37.4z"/><g fill="#235971"><path d="M-364.1 329.8h10.8c4.6 0 5.7 2.3 5.4 4.5-.3 1.7-1.4 3-3.5 3.8 2.6 1 3.6 2.5 3.2 4.9-.5 3-3.1 5.2-6.5 5.2H-367l2.9-18.4zm7.1 7.7c2.1 0 3.1-1.1 3.3-2.4.2-1.4-.4-2.4-2.5-2.4h-1.9l-.8 4.8h1.9zm-1.2 8c2.2 0 3.4-.9 3.7-2.7.2-1.5-.6-2.5-2.7-2.5h-2.1l-.8 5.2h1.9zm25 2.9c-2.8.2-4.2-.1-4.8-1.3-1.5.9-3.1 1.4-4.9 1.4-3.2 0-4.3-1.6-4-3.5.1-.9.6-1.7 1.5-2.4 1.7-1.5 6.1-1.7 7.8-2.9.1-1.3-.4-1.8-2-1.8-1.9 0-3.4.6-6.1 2.4l.6-4.2c2.3-1.7 4.5-2.4 7.1-2.4 3.3 0 6.2 1.3 5.6 4.9l-.6 4.1c-.2 1.4-.2 1.9 1.4 1.9l-1.6 3.8zm-4.8-6.3c-1.5.9-4.3.8-4.6 2.7-.1.9.4 1.6 1.3 1.6s2-.4 2.8-1c-.1-.3 0-.7.1-1.3l.4-2zm10.1-8.1h5.6l-.3 1.9c1.8-1.5 3.1-2.1 4.9-2.1 3.1 0 4.6 1.9 4.1 5.1l-1.5 9.4h-5.6l1.2-7.8c.2-1.4-.2-2.1-1.3-2.1-.9 0-1.7.5-2.5 1.5l-1.3 8.3h-5.6l2.3-14.2zm18.7-4.2h5.6l-1.4 9.1 5.4-4.9h6.9l-6.9 6.1 5.5 8.2h-7.1l-4.3-6.6h-.1l-1 6.6h-5.6l3-18.5z"/><path d="M-364.1 329.8h10.8c4.6 0 5.7 2.3 5.4 4.5-.3 1.7-1.4 3-3.5 3.8 2.6 1 3.6 2.5 3.2 4.9-.5 3-3.1 5.2-6.5 5.2H-367l2.9-18.4zm7.1 7.7c2.1 0 3.1-1.1 3.3-2.4.2-1.4-.4-2.4-2.5-2.4h-1.9l-.8 4.8h1.9zm-1.2 8c2.2 0 3.4-.9 3.7-2.7.2-1.5-.6-2.5-2.7-2.5h-2.1l-.8 5.2h1.9zm25 2.9c-2.8.2-4.2-.1-4.8-1.3-1.5.9-3.1 1.4-4.9 1.4-3.2 0-4.3-1.6-4-3.5.1-.9.6-1.7 1.5-2.4 1.7-1.5 6.1-1.7 7.8-2.9.1-1.3-.4-1.8-2-1.8-1.9 0-3.4.6-6.1 2.4l.6-4.2c2.3-1.7 4.5-2.4 7.1-2.4 3.3 0 6.2 1.3 5.6 4.9l-.6 4.1c-.2 1.4-.2 1.9 1.4 1.9l-1.6 3.8zm-4.8-6.3c-1.5.9-4.3.8-4.6 2.7-.1.9.4 1.6 1.3 1.6s2-.4 2.8-1c-.1-.3 0-.7.1-1.3l.4-2zm10.1-8.1h5.6l-.3 1.9c1.8-1.5 3.1-2.1 4.9-2.1 3.1 0 4.6 1.9 4.1 5.1l-1.5 9.4h-5.6l1.2-7.8c.2-1.4-.2-2.1-1.3-2.1-.9 0-1.7.5-2.5 1.5l-1.3 8.3h-5.6l2.3-14.2zm18.7-4.2h5.6l-1.4 9.1 5.4-4.9h6.9l-6.9 6.1 5.5 8.2h-7.1l-4.3-6.6h-.1l-1 6.6h-5.6l3-18.5z"/></g><path d="M-289.4 329.8h6.5l-2.9 18.4h-6.5l2.9-18.4zm9.6 0h9.2c7.1 0 9.2 5.2 8.5 9.5-.6 4.2-4 9-10.2 9h-10.3l2.8-18.5zm6 14.1c3.1 0 4.9-1.5 5.4-4.8.4-2.4-.4-4.8-3.8-4.8h-1.8l-1.5 9.7 1.7-.1z" fill="#459BBE"/></svg>