<svg width="70" height="32" xmlns="http://www.w3.org/2000/svg"><path d="M69.977 9.804H67.92c-.023 1.51-.378 2.037-1.275 2.037-.165 0-.331-.024-.448-.048-2.364-.503-2.364-.503-3.213-.503-1.064 0-1.678.168-2.93.791.992-1.174 1.607-1.534 3.779-2.18 2.552-.744 3.048-.96 4.04-1.655 1.158-.815 1.772-2.014 1.772-3.428 0-2.9-2.457-4.818-6.213-4.818-3.473 0-6.118 2.013-6.118 4.674 0 1.582.969 2.637 2.433 2.637 1.276 0 2.198-.839 2.198-1.99 0-.887-.686-1.606-1.584-1.606-.165 0-.472.048-.78.12.308-.623.52-.91.85-1.126.474-.312 1.182-.504 1.89-.504 1.702 0 2.812.887 2.812 2.253 0 1.127-.567 1.942-1.914 2.733-3.165 1.846-3.354 1.966-4.275 2.925-1.04 1.102-1.654 2.541-1.654 3.907 0 .263 0 .48.047.886h1.985c.4-.694.732-.934 1.346-.934.543 0 1.18.167 2.173.575 1.56.671 2.056.791 3.025.791 1.7 0 3.07-.719 3.66-1.87.332-.67.473-1.558.473-2.804 0-.192 0-.48-.023-.863M39.655 23.072L35.635 8.74H23.608v3.069h1.134c1.89.035 2.13.244 2.096 1.987v13.18c.035 1.743-.206 1.952-2.096 1.988h-1.134v3.033h9.828v-3.033h-.653c-1.924-.036-2.165-.245-2.13-1.988V12.403l5.532 19.595h4.639l5.67-19.561v14.54c.034 1.743-.207 1.952-2.097 1.988h-.652v3.033h11.992v-3.033h-1.168c-1.891-.036-2.131-.245-2.097-1.988v-13.18c-.034-1.743.206-1.952 2.097-1.987h1.168V8.74H43.813l-4.158 14.332zm-28.109 5.891H9.759V13.796c-.034-1.778.206-1.988 2.096-2.022h1.443V8.74H0v3.034h1.272c1.89.034 2.13.244 2.096 2.022v13.18c.034 1.743-.206 1.952-2.096 1.987H0v3.033h21.477v-9.483h-3.024c-.515 5.578-1.546 6.554-6.907 6.45" fill="#64AD29" fill-rule="evenodd"/></svg>